<?xml version="1.0" encoding="iso-8859-1"?>
<!-- Generator: Adobe Illustrator 16.0.0, SVG Export Plug-In . SVG Version: 6.00 Build 0)  -->
<!DOCTYPE svg PUBLIC "-//W3C//DTD SVG 1.1//EN" "http://www.w3.org/Graphics/SVG/1.1/DTD/svg11.dtd">
<svg version="1.1" id="Layer_1" xmlns="http://www.w3.org/2000/svg" xmlns:xlink="http://www.w3.org/1999/xlink" x="0px" y="0px"
	 width="512px" height="512px" viewBox="0 0 512 512" style="enable-background:new 0 0 512 512;" xml:space="preserve">
<path d="M238.2,45.1c-23.6,2-52.5,10-74.7,20.8C95.5,99,50.9,165.1,44.9,241.7c-4.6,58.8,18.9,121.1,61.6,163.8s105,66.2,163.7,61.6
	C376.8,458.7,458.7,376.8,467.1,270.2c4-51.2-13.8-106.9-47.5-148.2C383.7,78,329.4,49.7,271.6,45C257.3,43.9,253.2,43.9,238.2,45.1
	z M204.3,99c15.1,4.7,27.1,18.5,31.7,36.5c1.7,6.3,2.7,175.5,1.1,179.7c-2.1,5.6-10.4,3.8-14.6-3.2c-2-3.4-2-5.3-2.5-88l-0.5-84.5
	l-2.3-5.6c-3.9-9.8-12.6-17.4-21.9-19.4l-3.3-0.7v90.9c0,61.5,0.4,92.899,1.1,96.899c3.1,16.801,13.5,26.601,32.4,30.601
	c2.7,0.6,25.1,1.399,50,1.8c42.8,0.6,45.3,0.8,50.9,2.8c8.3,3.101,14.3,7.2,21.5,14.7c8.1,8.4,11.399,15.6,11.899,25.5
	c0.4,8.9-1.399,13.2-6.8,16.8l-3.4,2.3l-44.6-0.3c-44.1-0.3-44.6-0.3-50.3-2.6c-3.2-1.3-8.6-4.5-12-7
	c-6.7-5.101-15.4-15.3-16.4-19.101c-1.3-5.199,7.5-7.899,15-4.699c1.8,0.699,5,3.3,7.2,5.6s6.7,5.6,10,7.3l6,3.2l39.3,0.3
	c32.8,0.2,39.2,0.101,39.2-1.1c0-0.8-1.4-4.2-3.1-7.5c-3.5-7.101-8.7-11.8-17.5-15.9l-5.9-2.8l-45.5-0.6
	c-50.7-0.801-53.9-1.101-67-7.601c-9.8-4.7-18.9-13.7-23-22.6c-6.1-12.8-6-11-6-116.7c0-95,0-96.6,2-99.8
	C181.2,97.3,192.1,95.2,204.3,99z"/>
</svg>
